Coordinates
version=1
nRows=13
nColumns=40
inDegrees=yes

Units are S.I. units (second, meters, Newtons, ...)
Angles are in degrees.

endheader
time	pelvis_tilt	pelvis_list	pelvis_rotation	pelvis_tx	pelvis_ty	pelvis_tz	hip_flexion_r	hip_adduction_r	hip_rotation_r	knee_angle_r	knee_angle_r_beta	ankle_angle_r	subtalar_angle_r	mtp_angle_r	hip_flexion_l	hip_adduction_l	hip_rotation_l	knee_angle_l	knee_angle_l_beta	ankle_angle_l	subtalar_angle_l	mtp_angle_l	lumbar_extension	lumbar_bending	lumbar_rotation	arm_flex_r	arm_add_r	arm_rot_r	elbow_flex_r	pro_sup_r	wrist_flex_r	wrist_dev_r	arm_flex_l	arm_add_l	arm_rot_l	elbow_flex_l	pro_sup_l	wrist_flex_l	wrist_dev_l
     54.53750000	     -5.79164992	     -4.95851811	     -7.85545782	      0.92783780	      0.92714481	      0.50002522	     17.92646125	      3.99413218	     -9.28028402	     17.91070428	     17.91070428	      6.70938195	      1.75996550	     -3.81621906	      2.65472287	    -10.46700797	    -12.19269052	     28.91128450	     28.91128450	     16.03751838	    -12.85756881	     -1.72429479	     -9.33146750	      7.80627427	      1.08063514	     -8.42442534	    -13.38898021	    -14.44020657	     29.18085651	     46.59275048	      0.00000000	      0.00000000	     24.71282969	    -15.25376362	    -15.53649312	     73.19416940	     48.34024331	      0.00000000	      0.00000000
     54.55685714	     -5.79920631	     -5.00629957	     -7.37964122	      0.92968791	      0.92762632	      0.50429274	     17.27860557	      4.19962091	     -9.72103685	     17.76617859	     17.76617859	      7.25593088	      1.86840429	     -3.60313629	      3.88101757	    -11.13130005	    -11.20309270	     31.80601004	     31.80601004	     14.66497531	    -13.99921544	     -2.44899724	     -9.20528670	      7.71634316	      1.00868817	     -7.52389710	    -13.55993513	    -14.20688532	     29.14441912	     46.58297717	      0.00000000	      0.00000000	     23.61326942	    -14.73954248	    -15.21374889	     71.82451673	     48.28053381	      0.00000000	      0.00000000
     54.57621429	     -5.69517229	     -5.07743053	     -6.88924001	      0.93128792	      0.92804579	      0.50833216	     16.57463650	      4.40946850	    -10.13232257	     17.71128629	     17.71128629	      7.82427979	      1.90461029	     -3.44910774	      5.21716265	    -11.76873019	    -10.05879156	     35.00776522	     35.00776522	     13.13977618	    -15.27557493	     -2.98318495	     -9.21856032	      7.63937895	      0.98416188	     -6.46181196	    -13.71235826	    -13.95529956	     29.07079764	     46.57539537	      0.00000000	      0.00000000	     22.50666066	    -14.19585483	    -14.79824777	     70.32801860	     48.21247344	      0.00000000	      0.00000000
     54.59557143	     -5.55468231	     -5.03480869	     -6.38311360	      0.93260735	      0.92833774	      0.51203113	     16.01756391	      4.46034124	    -10.47830093	     17.96212720	     17.96212720	      8.64857342	      1.85765269	     -2.81831280	      6.69540541	    -12.16603527	     -8.73032649	     38.33425675	     38.33425675	     11.30691844	    -16.81873389	     -3.42883541	     -9.16461798	      7.44184421	      0.88418236	     -4.87054554	    -13.87890151	    -13.08905866	     27.92648196	     46.56998318	      0.00000000	      0.00000000	     21.75402954	    -13.82759213	    -13.89301931	     67.07888534	     48.07150015	      0.00000000	      0.00000000
     54.61492857	     -5.25954971	     -5.22222731	     -5.85181681	      0.93379242	      0.92854947	      0.51562500	     15.17697850	      4.77892854	    -10.82091776	     17.99037234	     17.99037234	      9.20222409	      1.69515390	     -2.82321651	      8.20203987	    -12.84658709	     -7.50272364	     41.96804891	     41.96804891	      9.80549101	    -17.69855044	     -3.26322526	     -9.48787553	      7.44012385	      1.05636657	     -3.67993847	    -13.98418004	    -12.94150085	     28.07985944	     46.56246741	      0.00000000	      0.00000000	     20.49500253	    -13.00132907	    -13.41350100	     65.91123672	     48.00430812	      0.00000000	      0.00000000
     54.63428571	     -5.19148553	     -5.35414772	     -5.23825338	      0.93456962	      0.92813872	      0.51881076	     14.74653805	      5.04293667	    -11.06745028	     18.24060522	     18.24060522	      9.83597511	      1.17158331	     -2.75401619	     10.22802063	    -13.36270315	     -6.02524318	     45.80535427	     45.80535427	      8.60849051	    -18.37566799	     -2.09297498	     -9.40802839	      7.42946550	      0.79936423	     -2.18516610	    -14.04807852	    -12.65815309	     27.99118208	     46.55766801	      0.00000000	      0.00000000	     19.12199215	    -12.58604341	    -12.71256026	     63.47375463	     47.89825477	      0.00000000	      0.00000000
     54.65364286	     -4.89253337	     -5.27919357	     -4.65290343	      0.93520950	      0.92792430	      0.52154205	     14.28440153	      5.03615405	    -11.09632809	     18.88259709	     18.88259709	     10.87528321	      0.54428398	     -1.89365901	     12.25878825	    -13.27818444	     -4.21278434	     49.95900907	     49.95900907	      9.95730005	    -18.47435864	      5.90223358	     -9.48721417	      7.18659160	      1.13095921	     -0.19342004	    -14.20232331	    -11.45131629	     26.03251838	     46.56804451	      0.00000000	      0.00000000	     19.02706707	    -12.01510406	    -10.66510024	     58.21793461	     47.63330346	      0.00000000	      0.00000000
     54.67300000	     -4.61941677	     -5.42943578	     -4.00248241	      0.93569547	      0.92717629	      0.52417652	     13.82022880	      5.30069757	    -11.16148831	     19.42212831	     19.42212831	     11.52917612	     -0.35209412	     -1.96618622	     14.12993274	    -13.62175446	     -2.91200439	     53.42520122	     53.42520122	      9.00830286	    -18.88815002	      7.04793432	     -9.66839288	      7.17240058	      0.84574759	      1.44879660	    -14.16164461	    -11.35838670	     26.53608878	     46.55384651	      0.00000000	      0.00000000	     17.39346760	    -11.55083476	    -10.10590328	     56.06742642	     47.54065453	      0.00000000	      0.00000000
     54.69235714	     -4.22101627	     -5.48422274	     -3.36800083	      0.93601858	      0.92648964	      0.52653002	     13.37871798	      5.48746578	    -10.91095817	     20.22740898	     20.22740898	     12.44121699	     -1.67271070	     -1.55483268	     15.97781831	    -13.50803112	     -1.28666423	     56.83612247	     56.83612247	     10.15616546	    -19.03810584	     13.66792824	     -9.91341112	      7.03645565	      1.20400251	      3.28830579	    -14.26342527	    -10.78880347	     25.82179580	     46.56062758	      0.00000000	      0.00000000	     17.22119100	    -10.79996553	     -8.40583375	     50.80429444	     47.31360204	      0.00000000	      0.00000000
     54.71171429	     -3.81540875	     -5.58351866	     -2.68914023	      0.93618939	      0.92537559	      0.52870640	     13.01355334	      5.72194727	    -10.69424773	     21.15088146	     21.15088146	     13.28730915	     -3.11143358	     -1.34321628	     17.67718951	    -13.54948800	     -0.07666274	     59.64654828	     59.64654828	     10.39476959	    -19.24193398	     16.52000431	    -10.19519958	      6.93106606	      1.06094642	      5.14132204	    -14.20505730	    -10.64180394	     26.34282162	     46.54405648	      0.00000000	      0.00000000	     16.10928815	    -10.31490634	     -7.27463523	     47.15254012	     47.14947061	      0.00000000	      0.00000000
     54.73107143	     -3.48711365	     -5.66577719	     -1.96523787	      0.93617859	      0.92386466	      0.53063226	     12.83729282	      5.91265084	    -10.53972891	     22.23498305	     22.23498305	     14.09698818	     -4.51485483	     -1.38743758	     19.38400856	    -13.56966475	      0.95035935	     61.93304096	     61.93304096	     10.43948493	    -19.39110132	     17.77710222	    -10.39785672	      6.81285313	      0.73316953	      7.06455867	    -14.05419390	    -10.58886846	     27.18229097	     46.52012604	      0.00000000	      0.00000000	     14.55797204	     -9.87563550	     -6.55448370	     44.36651285	     47.03237893	      0.00000000	      0.00000000
     54.75042857	     -3.07286553	     -5.79154625	     -1.23482777	      0.93603698	      0.92230828	      0.53242189	     12.58824691	      6.21205652	    -10.26646747	     23.30843206	     23.30843206	     14.87281301	     -6.26601361	     -1.07290673	     20.94945645	    -13.56205487	      1.88304543	     63.78346324	     63.78346324	     11.26134431	    -19.48965751	     20.08504996	    -10.71423299	      6.69502207	      0.72843504	      9.01997184	    -13.96282715	    -10.41411318	     27.93039114	     46.49013013	      0.00000000	      0.00000000	     13.53784500	     -9.38164032	     -5.49143517	     40.40732024	     46.87282083	      0.00000000	      0.00000000
     54.76978571	     -2.76423837	     -5.91522627	     -0.46846669	      0.93562237	      0.92034118	      0.53390132	     12.52207294	      6.47272079	    -10.08154011	     24.48806103	     24.48806103	     15.85521276	     -7.69735412	     -0.51895121	     22.62907408	    -13.49050153	      2.75545027	     65.20061123	     65.20061123	     12.32367901	    -19.54451262	     22.21714192	    -10.87023778	      6.64169787	      1.06538231	     10.60954093	    -14.05676494	    -10.19420783	     29.08034903	     46.43268935	      0.00000000	      0.00000000	     12.93753880	     -8.71853231	     -4.03945058	     35.86657493	     46.66157011	      0.00000000	      0.00000000
